{
  "source": "C:\\Users\\Peter\\Desktop\\stuff\\MIUN\\quantitative_research\\video_compression\\videos\\BVI-HD\\BVI-HD_CDVL_videos\\ORIG\\PlasmaAveragePan_1920x1080_60fps.mp4",
  "output": "C:\\Users\\Peter\\Desktop\\stuff\\MIUN\\quantitative_research\\video_compression\\compressed_videos\\BVI-HD\\hevc\\1.5\\PlasmaAveragePan_1920x1080_60fps_hevc.mp4",
  "codec": "hevc",
  "ok": "Input #0, mov,mp4,m4a,3gp,3g2,mj2, from 'C:\\Users\\Peter\\Desktop\\stuff\\MIUN\\quantitative_research\\video_compression\\videos\\BVI-HD\\BVI-HD_CDVL_videos\\ORIG\\PlasmaAveragePan_1920x1080_60fps.mp4':\n  Metadata:\n    major_brand     : isom\n    minor_version   : 512\n    compatible_brands: isomiso2avc1mp41\n    encoder         : Lavf54.28.101\n  Duration: 00:00:05.00, start: 0.000000, bitrate: 73730 kb/s\n  Stream #0:0[0x1](und): Video: h264 (High 4:4:4 Predictive) (avc1 / 0x31637661), yuv420p(progressive), 1920x1080, 73727 kb/s, 60 fps, 60 tbr, 60 tbn (default)\n    Metadata:\n      handler_name    : VideoHandler\n      vendor_id       : [0][0][0][0]\n[out#0/mp4 @ 0000020b16027900] Codec AVOption b:a (set bitrate (in bits/s)) has not been used for any stream. The most likely reason is either wrong type (e.g. a video option with no video streams) or that it is a private option of some decoder which was not actually used for any stream.\nStream mapping:\n  Stream #0:0 -> #0:0 (h264 (native) -> hevc (libx265))\nPress [q] to stop, [?] for help\n[libx265 @ 0000020b15f12c00] Unknown option: \"aq-mode.\nx265 [info]: HEVC encoder version 4.1+190-8f11c33ac\nx265 [info]: build info [Windows][GCC 15.1.0][64 bit] 10bit\nx265 [info]: using cpu capabilities: MMX2 SSE2Fast LZCNT SSSE3 SSE4.2 AVX FMA3 BMI2 AVX2\nx265 [info]: Main 10 profile, Level-4.1 (Main tier)\nx265 [info]: Thread pool created using 12 threads\nx265 [info]: Slices                              : 1\nx265 [info]: frame threads / pool features       : 3 / wpp(17 rows)\nx265 [info]: Coding QT: max CU size, min CU size : 64 / 8\nx265 [info]: Residual QT: max TU size, max depth : 32 / 1 inter / 1 intra\nx265 [info]: ME / range / subpel / merge         : star / 57 / 3 / 3\nx265 [info]: Keyframe min / max / scenecut / bias  : 25 / 250 / 40 / 5.00 \nx265 [info]: Lookahead / bframes / badapt        : 25 / 4 / 2\nx265 [info]: b-pyramid / weightp / weightb       : 1 / 1 / 0\nx265 [info]: References / ref-limit  cu / depth  : 4 / on / on\nx265 [info]: AQ: mode / str / qg-size / cu-tree  : 2 / 1.0 / 32 / 1\nx265 [info]: Rate Control / qCompress            : ABR-1500 kbps / 0.60\nx265 [info]: VBV/HRD buffer / max-rate / init    : 1500 / 1500 / 0.750\nx265 [info]: tools: rect limit-modes rd=4 psy-rd=2.00 rdoq=2 psy-rdoq=1.00\nx265 [info]: tools: rskip mode=1 signhide tmvp strong-intra-smoothing lslices=4\nx265 [info]: tools: deblock sao dhdr10-info\nOutput #0, mp4, to 'C:\\Users\\Peter\\Desktop\\stuff\\MIUN\\quantitative_research\\video_compression\\compressed_videos\\BVI-HD\\hevc\\1.5\\PlasmaAveragePan_1920x1080_60fps_hevc.mp4':\n  Metadata:\n    major_brand     : isom\n    minor_version   : 512\n    compatible_brands: isomiso2avc1mp41\n    encoder         : Lavf62.3.100\n  Stream #0:0(und): Video: hevc (hev1 / 0x31766568), yuv420p10le(tv, progressive), 1920x1080, q=2-31, 1500 kb/s, 60 fps, 15360 tbn (default)\n    Metadata:\n      encoder         : Lavc62.11.100 libx265\n      handler_name    : VideoHandler\n      vendor_id       : [0][0][0][0]\n    Side data:\n      cpb: bitrate max/min/avg: 1500000/0/1500000 buffer size: 1500000 vbv_delay: N/A\nframe=    0 fps=0.0 q=0.0 size=       0KiB time=N/A bitrate=N/A speed=N/A elapsed=0:00:00.51    \nframe=    0 fps=0.0 q=0.0 size=       0KiB time=N/A bitrate=N/A speed=N/A elapsed=0:00:01.05    \nframe=    0 fps=0.0 q=0.0 size=       0KiB time=N/A bitrate=N/A speed=N/A elapsed=0:00:01.58    \nframe=    0 fps=0.0 q=0.0 size=       0KiB time=N/A bitrate=N/A speed=N/A elapsed=0:00:02.08    \nframe=    0 fps=0.0 q=0.0 size=       0KiB time=N/A bitrate=N/A speed=N/A elapsed=0:00:02.61    \nframe=    0 fps=0.0 q=0.0 size=       0KiB time=N/A bitrate=N/A speed=N/A elapsed=0:00:03.11    \nframe=    0 fps=0.0 q=0.0 size=       0KiB time=N/A bitrate=N/A speed=N/A elapsed=0:00:03.64    \nframe=    0 fps=0.0 q=0.0 size=       0KiB time=N/A bitrate=N/A speed=N/A elapsed=0:00:04.19    \nframe=    1 fps=0.2 q=44.2 size=       0KiB time=-00:00:00.01 bitrate=N/A speed=N/A elapsed=0:00:04.71    \nframe=    2 fps=0.4 q=50.6 size=       0KiB time=00:00:00.00 bitrate=N/A speed=   0x elapsed=0:00:05.24    \nframe=    3 fps=0.5 q=51.0 size=       0KiB time=00:00:00.01 bitrate=  21.1kbits/s speed=0.00288x elapsed=0:00:05.78    \nframe=    4 fps=0.6 q=49.5 size=       0KiB time=00:00:00.03 bitrate=  10.6kbits/s speed=0.00529x elapsed=0:00:06.29    \nframe=    5 fps=0.7 q=49.4 size=       0KiB time=00:00:00.05 bitrate=   7.0kbits/s speed=0.00733x elapsed=0:00:06.81    \nframe=    6 fps=0.8 q=48.0 size=       0KiB time=00:00:00.06 bitrate=   5.3kbits/s speed=0.0091x elapsed=0:00:07.32    \nframe=    6 fps=0.8 q=48.0 size=       0KiB time=00:00:00.06 bitrate=   5.3kbits/s speed=0.0085x elapsed=0:00:07.84    \nframe=    7 fps=0.8 q=45.3 size=       0KiB time=00:00:00.08 bitrate=   4.2kbits/s speed=0.00996x elapsed=0:00:08.36    \nframe=    8 fps=0.9 q=46.3 size=       0KiB time=00:00:00.10 bitrate=   3.5kbits/s speed=0.0113x elapsed=0:00:08.87    \nframe=    8 fps=0.9 q=46.3 size=       0KiB time=00:00:00.10 bitrate=   3.5kbits/s speed=0.0106x elapsed=0:00:09.39    \nframe=    8 fps=0.8 q=46.3 size=       0KiB time=00:00:00.10 bitrate=   3.5kbits/s speed=0.0101x elapsed=0:00:09.90    \nframe=    9 fps=0.9 q=43.3 size=       0KiB time=00:00:00.11 bitrate=   3.0kbits/s speed=0.0112x elapsed=0:00:10.42    \nframe=    9 fps=0.8 q=43.3 size=       0KiB time=00:00:00.11 bitrate=   3.0kbits/s speed=0.0107x elapsed=0:00:10.94    \nframe=   10 fps=0.9 q=43.2 size=       0KiB time=00:00:00.13 bitrate=   2.6kbits/s speed=0.0116x elapsed=0:00:11.45    \nframe=   11 fps=0.9 q=40.7 size=       0KiB time=00:00:00.15 bitrate=   2.3kbits/s speed=0.0125x elapsed=0:00:11.96    \nframe=   11 fps=0.9 q=40.7 size=       0KiB time=00:00:00.15 bitrate=   2.3kbits/s speed=0.012x elapsed=0:00:12.48    \nframe=   12 fps=0.9 q=44.0 size=       0KiB time=00:00:00.16 bitrate=   2.1kbits/s speed=0.0128x elapsed=0:00:13.01    \nframe=   12 fps=0.9 q=44.0 size=       0KiB time=00:00:00.16 bitrate=   2.1kbits/s speed=0.0123x elapsed=0:00:13.52    \nframe=   12 fps=0.9 q=44.0 size=       0KiB time=00:00:00.16 bitrate=   2.1kbits/s speed=0.0119x elapsed=0:00:14.05    \nframe=   13 fps=0.9 q=44.2 size=       0KiB time=00:00:00.18 bitrate=   1.9kbits/s speed=0.0126x elapsed=0:00:14.57    \nframe=   13 fps=0.9 q=44.2 size=       0KiB time=00:00:00.18 bitrate=   1.9kbits/s speed=0.0121x elapsed=0:00:15.10    \nframe=   14 fps=0.9 q=44.2 size=       0KiB time=00:00:00.20 bitrate=   1.8kbits/s speed=0.0128x elapsed=0:00:15.62    \nframe=   15 fps=0.9 q=40.8 size=       0KiB time=00:00:00.21 bitrate=   1.6kbits/s speed=0.0134x elapsed=0:00:16.13    \nframe=   15 fps=0.9 q=40.8 size=       0KiB time=00:00:00.21 bitrate=   1.6kbits/s speed=0.013x elapsed=0:00:16.65    \nframe=   15 fps=0.9 q=40.8 size=       0KiB time=00:00:00.21 bitrate=   1.6kbits/s speed=0.0126x elapsed=0:00:17.17    \nframe=   16 fps=0.9 q=42.1 size=       0KiB time=00:00:00.23 bitrate=   1.5kbits/s speed=0.0132x elapsed=0:00:17.68    \nframe=   16 fps=0.9 q=42.1 size=       0KiB time=00:00:00.23 bitrate=   1.5kbits/s speed=0.0128x elapsed=0:00:18.21    \nframe=   17 fps=0.9 q=43.4 size=       0KiB time=00:00:00.25 bitrate=   1.4kbits/s speed=0.0133x elapsed=0:00:18.74    \nframe=   18 fps=0.9 q=40.6 size=       0KiB time=00:00:00.26 bitrate=   1.3kbits/s speed=0.0138x elapsed=0:00:19.26    \nframe=   19 fps=1.0 q=42.1 size=       0KiB time=00:00:00.28 bitrate=   1.2kbits/s speed=0.0143x elapsed=0:00:19.78    \nframe=   20 fps=1.0 q=43.1 size=       0KiB time=00:00:00.30 bitrate=   1.2kbits/s speed=0.0148x elapsed=0:00:20.30    \nframe=   21 fps=1.0 q=39.4 size=       0KiB time=00:00:00.31 bitrate=   1.1kbits/s speed=0.0152x elapsed=0:00:20.82    \nframe=   22 fps=1.0 q=41.7 size=       0KiB time=00:00:00.33 bitrate=   1.1kbits/s speed=0.0156x elapsed=0:00:21.34    \nframe=   22 fps=1.0 q=41.7 size=       0KiB time=00:00:00.33 bitrate=   1.1kbits/s speed=0.0152x elapsed=0:00:21.86    \nframe=   23 fps=1.0 q=42.3 size=       0KiB time=00:00:00.35 bitrate=   1.0kbits/s speed=0.0156x elapsed=0:00:22.36    \nframe=   24 fps=1.0 q=42.3 size=       0KiB time=00:00:00.36 bitrate=   1.0kbits/s speed=0.016x elapsed=0:00:22.89    \nframe=   25 fps=1.1 q=39.1 size=       0KiB time=00:00:00.38 bitrate=   0.9kbits/s speed=0.0164x elapsed=0:00:23.41    \nframe=   26 fps=1.1 q=41.0 size=       0KiB time=00:00:00.40 bitrate=   0.9kbits/s speed=0.0167x elapsed=0:00:23.93    \nframe=   27 fps=1.1 q=42.3 size=       0KiB time=00:00:00.41 bitrate=   0.8kbits/s speed=0.017x elapsed=0:00:24.46    \nframe=   28 fps=1.1 q=42.0 size=       0KiB time=00:00:00.43 bitrate=   0.8kbits/s speed=0.0174x elapsed=0:00:24.96    \nframe=   28 fps=1.1 q=42.0 size=       0KiB time=00:00:00.43 bitrate=   0.8kbits/s speed=0.017x elapsed=0:00:25.48    \nframe=   29 fps=1.1 q=42.1 size=       0KiB time=00:00:00.45 bitrate=   0.8kbits/s speed=0.0173x elapsed=0:00:26.01    \nframe=   29 fps=1.1 q=42.1 size=       0KiB time=00:00:00.45 bitrate=   0.8kbits/s speed=0.017x elapsed=0:00:26.52    \nframe=   30 fps=1.1 q=39.1 size=       0KiB time=00:00:00.46 bitrate=   0.8kbits/s speed=0.0173x elapsed=0:00:27.04    \nframe=   31 fps=1.1 q=40.9 size=       0KiB time=00:00:00.48 bitrate=   0.7kbits/s speed=0.0175x elapsed=0:00:27.59    \nframe=   32 fps=1.1 q=42.1 size=       0KiB time=00:00:00.50 bitrate=   0.7kbits/s speed=0.0178x elapsed=0:00:28.10    \nframe=   32 fps=1.1 q=42.1 size=       0KiB time=00:00:00.50 bitrate=   0.7kbits/s speed=0.0175x elapsed=0:00:28.62    \nframe=   32 fps=1.1 q=42.1 size=       0KiB time=00:00:00.50 bitrate=   0.7kbits/s speed=0.0171x elapsed=0:00:29.16    \nframe=   33 fps=1.1 q=42.0 size=       0KiB time=00:00:00.51 bitrate=   0.7kbits/s speed=0.0174x elapsed=0:00:29.68    \nframe=   33 fps=1.1 q=42.0 size=       0KiB time=00:00:00.51 bitrate=   0.7kbits/s speed=0.0171x elapsed=0:00:30.20    \nframe=   34 fps=1.1 q=42.1 size=       0KiB time=00:00:00.53 bitrate=   0.7kbits/s speed=0.0174x elapsed=0:00:30.71    \nframe=   35 fps=1.1 q=38.9 size=       0KiB time=00:00:00.55 bitrate=   0.6kbits/s speed=0.0176x elapsed=0:00:31.23    \nframe=   35 fps=1.1 q=38.9 size=       0KiB time=00:00:00.55 bitrate=   0.6kbits/s speed=0.0173x elapsed=0:00:31.76    \nframe=   36 fps=1.1 q=40.4 size=       0KiB time=00:00:00.56 bitrate=   0.6kbits/s speed=0.0176x elapsed=0:00:32.27    \nframe=   37 fps=1.1 q=42.0 size=       0KiB time=00:00:00.58 bitrate=   0.6kbits/s speed=0.0178x elapsed=0:00:32.80    \nframe=   37 fps=1.1 q=42.0 size=       0KiB time=00:00:00.58 bitrate=   0.6kbits/s speed=0.0175x elapsed=0:00:33.31    \nframe=   37 fps=1.1 q=42.0 size=       0KiB time=00:00:00.58 bitrate=   0.6kbits/s speed=0.0172x elapsed=0:00:33.84    \nframe=   38 fps=1.1 q=42.8 size=       0KiB time=00:00:00.60 bitrate=   0.6kbits/s speed=0.0175x elapsed=0:00:34.36    \nframe=   38 fps=1.1 q=42.8 size=       0KiB time=00:00:00.60 bitrate=   0.6kbits/s speed=0.0172x elapsed=0:00:34.87    \nframe=   39 fps=1.1 q=39.2 size=       0KiB time=00:00:00.61 bitrate=   0.6kbits/s speed=0.0174x elapsed=0:00:35.39    \nframe=   39 fps=1.1 q=39.2 size=       0KiB time=00:00:00.61 bitrate=   0.6kbits/s speed=0.0172x elapsed=0:00:35.93    \nframe=   40 fps=1.1 q=41.2 size=       0KiB time=00:00:00.63 bitrate=   0.6kbits/s speed=0.0174x elapsed=0:00:36.46    \nframe=   40 fps=1.1 q=41.2 size=       0KiB time=00:00:00.63 bitrate=   0.6kbits/s speed=0.0171x elapsed=0:00:36.98    \nframe=   41 fps=1.1 q=42.9 size=       0KiB time=00:00:00.65 bitrate=   0.5kbits/s speed=0.0173x elapsed=0:00:37.50    \nframe=   41 fps=1.1 q=42.9 size=       0KiB time=00:00:00.65 bitrate=   0.5kbits/s speed=0.0171x elapsed=0:00:38.01    \nframe=   42 fps=1.1 q=42.8 size=       0KiB time=00:00:00.66 bitrate=   0.5kbits/s speed=0.0173x elapsed=0:00:38.53    \nframe=   42 fps=1.1 q=42.8 size=       0KiB time=00:00:00.66 bitrate=   0.5kbits/s speed=0.0171x elapsed=0:00:39.05    \nframe=   43 fps=1.1 q=39.9 size=       0KiB time=00:00:00.68 bitrate=   0.5kbits/s speed=0.0173x elapsed=0:00:39.56    \nframe=   43 fps=1.1 q=39.9 size=       0KiB time=00:00:00.68 bitrate=   0.5kbits/s speed=0.017x elapsed=0:00:40.09    \nframe=   44 fps=1.1 q=41.3 size=       0KiB time=00:00:00.70 bitrate=   0.5kbits/s speed=0.0172x elapsed=0:00:40.61    \nframe=   44 fps=1.1 q=41.3 size=       0KiB time=00:00:00.70 bitrate=   0.5kbits/s speed=0.017x elapsed=0:00:41.15    \nframe=   45 fps=1.1 q=42.7 size=       0KiB time=00:00:00.71 bitrate=   0.5kbits/s speed=0.0172x elapsed=0:00:41.69    \nframe=   45 fps=1.1 q=42.7 size=       0KiB time=00:00:00.71 bitrate=   0.5kbits/s speed=0.017x elapsed=0:00:42.19    \nframe=   46 fps=1.1 q=38.5 size=       0KiB time=00:00:00.73 bitrate=   0.5kbits/s speed=0.0172x elapsed=0:00:42.73    \nframe=   46 fps=1.1 q=38.5 size=       0KiB time=00:00:00.73 bitrate=   0.5kbits/s speed=0.0169x elapsed=0:00:43.27    \nframe=   47 fps=1.1 q=41.2 size=       0KiB time=00:00:00.75 bitrate=   0.5kbits/s speed=0.0171x elapsed=0:00:43.79    \nframe=   47 fps=1.1 q=41.2 size=       0KiB time=00:00:00.75 bitrate=   0.5kbits/s speed=0.0169x elapsed=0:00:44.32    \nframe=   47 fps=1.0 q=41.2 size=       0KiB time=00:00:00.75 bitrate=   0.5kbits/s speed=0.0167x elapsed=0:00:44.86    \nframe=   47 fps=1.0 q=41.2 size=       0KiB time=00:00:00.75 bitrate=   0.5kbits/s speed=0.0165x elapsed=0:00:45.41    \nframe=   47 fps=1.0 q=41.2 size=       0KiB time=00:00:00.75 bitrate=   0.5kbits/s speed=0.0163x elapsed=0:00:45.94    \nframe=   47 fps=1.0 q=41.2 size=       0KiB time=00:00:00.75 bitrate=   0.5kbits/s speed=0.0161x elapsed=0:00:46.46    \nframe=   48 fps=1.0 q=42.6 size=       0KiB time=00:00:00.76 bitrate=   0.5kbits/s speed=0.0163x elapsed=0:00:46.98    \nframe=   49 fps=1.0 q=42.0 size=       0KiB time=00:00:00.78 bitrate=   0.4kbits/s speed=0.0165x elapsed=0:00:47.49    \nframe=   49 fps=1.0 q=42.0 size=       0KiB time=00:00:00.78 bitrate=   0.4kbits/s speed=0.0163x elapsed=0:00:48.01    \nframe=   50 fps=1.0 q=39.0 size=       0KiB time=00:00:00.80 bitrate=   0.4kbits/s speed=0.0165x elapsed=0:00:48.53    \nframe=   51 fps=1.0 q=41.0 size=       0KiB time=00:00:00.81 bitrate=   0.4kbits/s speed=0.0167x elapsed=0:00:49.04    \nframe=   52 fps=1.0 q=42.7 size=       0KiB time=00:00:00.83 bitrate=   0.4kbits/s speed=0.0168x elapsed=0:00:49.58    \nframe=   52 fps=1.0 q=42.7 size=       0KiB time=00:00:00.83 bitrate=   0.4kbits/s speed=0.0166x elapsed=0:00:50.09    \nframe=   53 fps=1.0 q=42.7 size=       0KiB time=00:00:00.85 bitrate=   0.4kbits/s speed=0.0168x elapsed=0:00:50.60    \nframe=   54 fps=1.1 q=39.1 size=       0KiB time=00:00:00.86 bitrate=   0.4kbits/s speed=0.017x elapsed=0:00:51.13    \nframe=   55 fps=1.1 q=40.9 size=       0KiB time=00:00:00.88 bitrate=   0.4kbits/s speed=0.0171x elapsed=0:00:51.63    \nframe=   55 fps=1.1 q=40.9 size=       0KiB time=00:00:00.88 bitrate=   0.4kbits/s speed=0.0169x elapsed=0:00:52.15    \nframe=   56 fps=1.1 q=42.7 size=       0KiB time=00:00:00.90 bitrate=   0.4kbits/s speed=0.0171x elapsed=0:00:52.67    \nframe=   56 fps=1.1 q=42.7 size=       0KiB time=00:00:00.90 bitrate=   0.4kbits/s speed=0.0169x elapsed=0:00:53.19    \nframe=   57 fps=1.1 q=42.9 size=       0KiB time=00:00:00.91 bitrate=   0.4kbits/s speed=0.0171x elapsed=0:00:53.71    \nframe=   59 fps=1.1 q=41.0 size=       0KiB time=00:00:00.95 bitrate=   0.4kbits/s speed=0.0175x elapsed=0:00:54.23    \nframe=   59 fps=1.1 q=41.0 size=       0KiB time=00:00:00.95 bitrate=   0.4kbits/s speed=0.0173x elapsed=0:00:54.77    \nframe=   60 fps=1.1 q=42.9 size=       0KiB time=00:00:00.96 bitrate=   0.4kbits/s speed=0.0175x elapsed=0:00:55.29    \nframe=   61 fps=1.1 q=42.9 size=       0KiB time=00:00:00.96 bitrate=   0.4kbits/s speed=0.0173x elapsed=0:00:55.80    \nframe=   61 fps=1.1 q=42.9 size=       0KiB time=00:00:00.98 bitrate=   0.4kbits/s speed=0.0175x elapsed=0:00:56.33    \nframe=   62 fps=1.1 q=38.7 size=       0KiB time=00:00:01.00 bitrate=   0.4kbits/s speed=0.0176x elapsed=0:00:56.86    \nframe=   63 fps=1.1 q=40.4 size=       0KiB time=00:00:01.01 bitrate=   0.3kbits/s speed=0.0177x elapsed=0:00:57.38    \nframe=   63 fps=1.1 q=40.4 size=       0KiB time=00:00:01.01 bitrate=   0.3kbits/s speed=0.0176x elapsed=0:00:57.89    \nframe=   64 fps=1.1 q=42.8 size=       0KiB time=00:00:01.03 bitrate=   0.3kbits/s speed=0.0177x elapsed=0:00:58.40    \nframe=   65 fps=1.1 q=42.8 size=       0KiB time=00:00:01.05 bitrate=   0.3kbits/s speed=0.0178x elapsed=0:00:58.92    \nframe=   65 fps=1.1 q=42.8 size=       0KiB time=00:00:01.05 bitrate=   0.3kbits/s speed=0.0177x elapsed=0:00:59.43    \nframe=   66 fps=1.1 q=38.4 size=       0KiB time=00:00:01.06 bitrate=   0.3kbits/s speed=0.0178x elapsed=0:00:59.95    \nframe=   67 fps=1.1 q=41.1 size=       0KiB time=00:00:01.08 bitrate=   0.3kbits/s speed=0.0179x elapsed=0:01:00.47    \nframe=   68 fps=1.1 q=42.7 size=       0KiB time=00:00:01.10 bitrate=   0.3kbits/s speed=0.018x elapsed=0:01:00.97    \nframe=   68 fps=1.1 q=42.7 size=       0KiB time=00:00:01.10 bitrate=   0.3kbits/s speed=0.0179x elapsed=0:01:01.50    \nframe=   69 fps=1.1 q=42.8 size=       0KiB time=00:00:01.11 bitrate=   0.3kbits/s speed=0.018x elapsed=0:01:02.03    \nframe=   70 fps=1.1 q=39.3 size=       0KiB time=00:00:01.13 bitrate=   0.3kbits/s speed=0.0181x elapsed=0:01:02.54    \nframe=   70 fps=1.1 q=39.3 size=       0KiB time=00:00:01.13 bitrate=   0.3kbits/s speed=0.018x elapsed=0:01:03.06    \nframe=   71 fps=1.1 q=41.0 size=       0KiB time=00:00:01.15 bitrate=   0.3kbits/s speed=0.0181x elapsed=0:01:03.58    \nframe=   72 fps=1.1 q=42.8 size=       0KiB time=00:00:01.16 bitrate=   0.3kbits/s speed=0.0182x elapsed=0:01:04.09    \nframe=   72 fps=1.1 q=42.8 size=       0KiB time=00:00:01.16 bitrate=   0.3kbits/s speed=0.0181x elapsed=0:01:04.61    \nframe=   73 fps=1.1 q=42.6 size=       0KiB time=00:00:01.18 bitrate=   0.3kbits/s speed=0.0182x elapsed=0:01:05.12    \nframe=   74 fps=1.1 q=38.5 size=       0KiB time=00:00:01.20 bitrate=   0.3kbits/s speed=0.0183x elapsed=0:01:05.64    \nframe=   74 fps=1.1 q=38.5 size=       0KiB time=00:00:01.20 bitrate=   0.3kbits/s speed=0.0181x elapsed=0:01:06.16    \nframe=   75 fps=1.1 q=41.6 size=       0KiB time=00:00:01.21 bitrate=   0.3kbits/s speed=0.0182x elapsed=0:01:06.66    \nframe=   76 fps=1.1 q=42.7 size=       0KiB time=00:00:01.23 bitrate=   0.3kbits/s speed=0.0184x elapsed=0:01:07.18    \nframe=   76 fps=1.1 q=42.7 size=       0KiB time=00:00:01.23 bitrate=   0.3kbits/s speed=0.0182x elapsed=0:01:07.71    \nframe=   77 fps=1.1 q=42.7 size=       0KiB time=00:00:01.25 bitrate=   0.3kbits/s speed=0.0183x elapsed=0:01:08.21    \nframe=   78 fps=1.1 q=42.8 size=       0KiB time=00:00:01.26 bitrate=   0.3kbits/s speed=0.0184x elapsed=0:01:08.74    \nframe=   78 fps=1.1 q=42.8 size=       0KiB time=00:00:01.26 bitrate=   0.3kbits/s speed=0.0183x elapsed=0:01:09.26    \nframe=   79 fps=1.1 q=39.2 size=       0KiB time=00:00:01.28 bitrate=   0.3kbits/s speed=0.0184x elapsed=0:01:09.78    \nframe=   79 fps=1.1 q=39.2 size=       0KiB time=00:00:01.28 bitrate=   0.3kbits/s speed=0.0182x elapsed=0:01:10.33    \nframe=   80 fps=1.1 q=41.1 size=       0KiB time=00:00:01.30 bitrate=   0.3kbits/s speed=0.0183x elapsed=0:01:10.88    \nframe=   80 fps=1.1 q=41.1 size=       0KiB time=00:00:01.30 bitrate=   0.3kbits/s speed=0.0182x elapsed=0:01:11.42    \nframe=   81 fps=1.1 q=42.8 size=       0KiB time=00:00:01.31 bitrate=   0.3kbits/s speed=0.0183x elapsed=0:01:11.97    \nframe=   81 fps=1.1 q=42.8 size=       0KiB time=00:00:01.31 bitrate=   0.3kbits/s speed=0.0182x elapsed=0:01:12.50    \nframe=   82 fps=1.1 q=42.7 size=       0KiB time=00:00:01.33 bitrate=   0.3kbits/s speed=0.0182x elapsed=0:01:13.07    \nframe=   82 fps=1.1 q=42.7 size=       0KiB time=00:00:01.33 bitrate=   0.3kbits/s speed=0.0181x elapsed=0:01:13.61    \nframe=   83 fps=1.1 q=39.2 size=       0KiB time=00:00:01.35 bitrate=   0.3kbits/s speed=0.0182x elapsed=0:01:14.14    \nframe=   83 fps=1.1 q=39.2 size=       0KiB time=00:00:01.35 bitrate=   0.3kbits/s speed=0.0181x elapsed=0:01:14.67    \nframe=   84 fps=1.1 q=41.1 size=       0KiB time=00:00:01.36 bitrate=   0.3kbits/s speed=0.0182x elapsed=0:01:15.20    \nframe=   85 fps=1.1 q=43.0 size=       0KiB time=00:00:01.38 bitrate=   0.3kbits/s speed=0.0183x elapsed=0:01:15.72    \nframe=   85 fps=1.1 q=43.0 size=       0KiB time=00:00:01.38 bitrate=   0.3kbits/s speed=0.0181x elapsed=0:01:16.28    \nframe=   85 fps=1.1 q=43.0 size=       0KiB time=00:00:01.38 bitrate=   0.3kbits/s speed=0.018x elapsed=0:01:16.81    \nframe=   85 fps=1.1 q=43.0 size=       0KiB time=00:00:01.38 bitrate=   0.3kbits/s speed=0.0179x elapsed=0:01:17.34    \nframe=   85 fps=1.1 q=43.0 size=       0KiB time=00:00:01.38 bitrate=   0.3kbits/s speed=0.0178x elapsed=0:01:17.89    \nframe=   86 fps=1.1 q=42.7 size=       0KiB time=00:00:01.40 bitrate=   0.3kbits/s speed=0.0179x elapsed=0:01:18.41    \nframe=   86 fps=1.1 q=42.7 size=       0KiB time=00:00:01.40 bitrate=   0.3kbits/s speed=0.0177x elapsed=0:01:18.92    \nframe=   87 fps=1.1 q=39.3 size=       0KiB time=00:00:01.41 bitrate=   0.2kbits/s speed=0.0178x elapsed=0:01:19.45    \nframe=   88 fps=1.1 q=41.2 size=     256KiB time=00:00:01.43 bitrate=1463.4kbits/s speed=0.0179x elapsed=0:01:19.98    \nframe=   88 fps=1.1 q=41.2 size=     256KiB time=00:00:01.43 bitrate=1463.4kbits/s speed=0.0178x elapsed=0:01:20.52    \nframe=   89 fps=1.1 q=42.5 size=     256KiB time=00:00:01.45 bitrate=1446.6kbits/s speed=0.0179x elapsed=0:01:21.06    \nframe=   89 fps=1.1 q=42.5 size=     256KiB time=00:00:01.45 bitrate=1446.6kbits/s speed=0.0178x elapsed=0:01:21.61    \nframe=   89 fps=1.1 q=42.5 size=     256KiB time=00:00:01.45 bitrate=1446.6kbits/s speed=0.0176x elapsed=0:01:22.18    \nframe=   90 fps=1.1 q=42.9 size=     256KiB time=00:00:01.46 bitrate=1430.1kbits/s speed=0.0177x elapsed=0:01:22.70    \nframe=   90 fps=1.1 q=42.9 size=     256KiB time=00:00:01.46 bitrate=1430.1kbits/s speed=0.0176x elapsed=0:01:23.21    \nframe=   91 fps=1.1 q=39.5 size=     256KiB time=00:00:01.48 bitrate=1414.0kbits/s speed=0.0177x elapsed=0:01:23.73    \nframe=   91 fps=1.1 q=39.5 size=     256KiB time=00:00:01.48 bitrate=1414.0kbits/s speed=0.0176x elapsed=0:01:24.24    \nframe=   92 fps=1.1 q=41.5 size=     256KiB time=00:00:01.50 bitrate=1398.3kbits/s speed=0.0177x elapsed=0:01:24.80    \nframe=   92 fps=1.1 q=41.5 size=     256KiB time=00:00:01.50 bitrate=1398.3kbits/s speed=0.0176x elapsed=0:01:25.33    \nframe=   93 fps=1.1 q=42.7 size=     256KiB time=00:00:01.51 bitrate=1383.0kbits/s speed=0.0177x elapsed=0:01:25.83    \nframe=   93 fps=1.1 q=42.7 size=     256KiB time=00:00:01.51 bitrate=1383.0kbits/s speed=0.0176x elapsed=0:01:26.36    \nframe=   94 fps=1.1 q=42.7 size=     256KiB time=00:00:01.53 bitrate=1367.9kbits/s speed=0.0176x elapsed=0:01:26.88    \nframe=   94 fps=1.1 q=42.7 size=     256KiB time=00:00:01.53 bitrate=1367.9kbits/s speed=0.0175x elapsed=0:01:27.41    \nframe=   95 fps=1.1 q=39.4 size=     256KiB time=00:00:01.55 bitrate=1353.2kbits/s speed=0.0176x elapsed=0:01:27.94    \nframe=   95 fps=1.1 q=39.4 size=     256KiB time=00:00:01.55 bitrate=1353.2kbits/s speed=0.0175x elapsed=0:01:28.46    \nframe=   96 fps=1.1 q=41.4 size=     256KiB time=00:00:01.56 bitrate=1338.8kbits/s speed=0.0176x elapsed=0:01:28.98    \nframe=   96 fps=1.1 q=41.4 size=     256KiB time=00:00:01.56 bitrate=1338.8kbits/s speed=0.0175x elapsed=0:01:29.51    \nframe=   97 fps=1.1 q=42.7 size=     256KiB time=00:00:01.58 bitrate=1324.7kbits/s speed=0.0176x elapsed=0:01:30.02    \nframe=   98 fps=1.1 q=42.6 size=     256KiB time=00:00:01.60 bitrate=1310.9kbits/s speed=0.0177x elapsed=0:01:30.55    \nframe=   99 fps=1.1 q=39.3 size=     256KiB time=00:00:01.61 bitrate=1297.4kbits/s speed=0.0177x elapsed=0:01:31.10    \nframe=   99 fps=1.1 q=39.3 size=     256KiB time=00:00:01.61 bitrate=1297.4kbits/s speed=0.0176x elapsed=0:01:31.60    \nframe=  100 fps=1.1 q=41.9 size=     256KiB time=00:00:01.63 bitrate=1284.2kbits/s speed=0.0177x elapsed=0:01:32.14    \nframe=  100 fps=1.1 q=41.9 size=     256KiB time=00:00:01.63 bitrate=1284.2kbits/s speed=0.0176x elapsed=0:01:32.66    \nframe=  101 fps=1.1 q=39.4 size=     256KiB time=00:00:01.65 bitrate=1271.2kbits/s speed=0.0177x elapsed=0:01:33.19    \nframe=  101 fps=1.1 q=39.4 size=     256KiB time=00:00:01.65 bitrate=1271.2kbits/s speed=0.0176x elapsed=0:01:33.71    \nframe=  101 fps=1.1 q=39.4 size=     256KiB time=00:00:01.65 bitrate=1271.2kbits/s speed=0.0175x elapsed=0:01:34.23    \nframe=  102 fps=1.1 q=41.1 size=     256KiB time=00:00:01.65 bitrate=1271.2kbits/s speed=0.0174x elapsed=0:01:34.78    \nframe=  102 fps=1.1 q=41.1 size=     256KiB time=00:00:01.66 bitrate=1258.5kbits/s speed=0.0175x elapsed=0:01:35.34    \nframe=  102 fps=1.1 q=41.1 size=     256KiB time=00:00:01.66 bitrate=1258.5kbits/s speed=0.0174x elapsed=0:01:35.86    \nframe=  102 fps=1.1 q=41.1 size=     256KiB time=00:00:01.66 bitrate=1258.5kbits/s speed=0.0173x elapsed=0:01:36.38    \nframe=  102 fps=1.1 q=41.1 size=     256KiB time=00:00:01.66 bitrate=1258.5kbits/s speed=0.0172x elapsed=0:01:36.91    \nframe=  103 fps=1.1 q=42.5 size=     256KiB time=00:00:01.68 bitrate=1246.0kbits/s speed=0.0173x elapsed=0:01:37.45    \nframe=  103 fps=1.1 q=42.5 size=     256KiB time=00:00:01.68 bitrate=1246.0kbits/s speed=0.0172x elapsed=0:01:37.99    \nframe=  104 fps=1.1 q=41.9 size=     256KiB time=00:00:01.70 bitrate=1233.8kbits/s speed=0.0173x elapsed=0:01:38.52    \nframe=  105 fps=1.1 q=39.1 size=     256KiB time=00:00:01.71 bitrate=1221.8kbits/s speed=0.0173x elapsed=0:01:39.05    \nframe=  105 fps=1.1 q=39.1 size=     256KiB time=00:00:01.71 bitrate=1221.8kbits/s speed=0.0172x elapsed=0:01:39.59    \nframe=  106 fps=1.1 q=40.8 size=     256KiB time=00:00:01.73 bitrate=1210.1kbits/s speed=0.0173x elapsed=0:01:40.11    \nframe=  107 fps=1.1 q=42.6 size=     256KiB time=00:00:01.75 bitrate=1198.6kbits/s speed=0.0174x elapsed=0:01:40.62    \nframe=  107 fps=1.1 q=42.6 size=     256KiB time=00:00:01.75 bitrate=1198.6kbits/s speed=0.0173x elapsed=0:01:41.14    \nframe=  108 fps=1.1 q=42.7 size=     256KiB time=00:00:01.76 bitrate=1187.3kbits/s speed=0.0174x elapsed=0:01:41.65    \nframe=  109 fps=1.1 q=39.2 size=     256KiB time=00:00:01.78 bitrate=1176.2kbits/s speed=0.0175x elapsed=0:01:42.17    \nframe=  110 fps=1.1 q=40.7 size=     256KiB time=00:00:01.80 bitrate=1165.3kbits/s speed=0.0175x elapsed=0:01:42.70    \nframe=  110 fps=1.1 q=40.7 size=     256KiB time=00:00:01.80 bitrate=1165.3kbits/s speed=0.0174x elapsed=0:01:43.22    \nframe=  111 fps=1.1 q=42.6 size=     256KiB time=00:00:01.81 bitrate=1154.6kbits/s speed=0.0175x elapsed=0:01:43.74    \nframe=  112 fps=1.1 q=42.8 size=     256KiB time=00:00:01.83 bitrate=1144.1kbits/s speed=0.0176x elapsed=0:01:44.24    \nframe=  112 fps=1.1 q=42.8 size=     256KiB time=00:00:01.83 bitrate=1144.1kbits/s speed=0.0175x elapsed=0:01:44.76    \nframe=  113 fps=1.1 q=39.6 size=     256KiB time=00:00:01.85 bitrate=1133.8kbits/s speed=0.0176x elapsed=0:01:45.29    \nframe=  114 fps=1.1 q=40.9 size=     256KiB time=00:00:01.86 bitrate=1123.7kbits/s speed=0.0176x elapsed=0:01:45.81    \nframe=  115 fps=1.1 q=42.8 size=     256KiB time=00:00:01.88 bitrate=1113.7kbits/s speed=0.0177x elapsed=0:01:46.32    \nframe=  116 fps=1.1 q=42.9 size=     256KiB time=00:00:01.90 bitrate=1103.9kbits/s speed=0.0178x elapsed=0:01:46.84    \nframe=  118 fps=1.1 q=41.6 size=     256KiB time=00:00:01.93 bitrate=1084.9kbits/s speed=0.018x elapsed=0:01:47.36    \nframe=  118 fps=1.1 q=41.6 size=     256KiB time=00:00:01.93 bitrate=1084.9kbits/s speed=0.0179x elapsed=0:01:47.88    \nframe=  120 fps=1.1 q=42.9 size=     256KiB time=00:00:01.96 bitrate=1066.5kbits/s speed=0.0181x elapsed=0:01:48.40    \nframe=  121 fps=1.1 q=40.5 size=     256KiB time=00:00:01.98 bitrate=1057.6kbits/s speed=0.0182x elapsed=0:01:48.92    \nframe=  122 fps=1.1 q=41.8 size=     256KiB time=00:00:02.00 bitrate=1048.8kbits/s speed=0.0183x elapsed=0:01:49.43    \nframe=  123 fps=1.1 q=42.9 size=     256KiB time=00:00:02.01 bitrate=1040.1kbits/s speed=0.0183x elapsed=0:01:49.95    \nframe=  124 fps=1.1 q=43.0 size=     256KiB time=00:00:02.03 bitrate=1031.6kbits/s speed=0.0184x elapsed=0:01:50.47    \nframe=  124 fps=1.1 q=43.0 size=     256KiB time=00:00:02.03 bitrate=1031.6kbits/s speed=0.0183x elapsed=0:01:51.00    \nframe=  125 fps=1.1 q=40.5 size=     256KiB time=00:00:02.05 bitrate=1023.2kbits/s speed=0.0184x elapsed=0:01:51.52    \nframe=  126 fps=1.1 q=41.6 size=     256KiB time=00:00:02.06 bitrate=1014.9kbits/s speed=0.0184x elapsed=0:01:52.04    \nframe=  127 fps=1.1 q=43.0 size=     256KiB time=00:00:02.08 bitrate=1006.8kbits/s speed=0.0185x elapsed=0:01:52.57    \nframe=  128 fps=1.1 q=43.0 size=     256KiB time=00:00:02.10 bitrate= 998.8kbits/s speed=0.0186x elapsed=0:01:53.09    \nframe=  128 fps=1.1 q=43.0 size=     256KiB time=00:00:02.10 bitrate= 998.8kbits/s speed=0.0185x elapsed=0:01:53.62    \nframe=  129 fps=1.1 q=40.5 size=     256KiB time=00:00:02.11 bitrate= 990.9kbits/s speed=0.0185x elapsed=0:01:54.14    \nframe=  129 fps=1.1 q=40.5 size=     256KiB time=00:00:02.11 bitrate= 990.9kbits/s speed=0.0185x elapsed=0:01:54.66    \nframe=  129 fps=1.1 q=40.5 size=     256KiB time=00:00:02.11 bitrate= 990.9kbits/s speed=0.0184x elapsed=0:01:55.17    \nframe=  131 fps=1.1 q=43.1 size=     256KiB time=00:00:02.15 bitrate= 975.6kbits/s speed=0.0186x elapsed=0:01:55.68    \nframe=  131 fps=1.1 q=43.1 size=     256KiB time=00:00:02.15 bitrate= 975.6kbits/s speed=0.0185x elapsed=0:01:56.20    \nframe=  132 fps=1.1 q=43.2 size=     256KiB time=00:00:02.16 bitrate= 968.1kbits/s speed=0.0186x elapsed=0:01:56.77    \nframe=  132 fps=1.1 q=43.2 size=     256KiB time=00:00:02.16 bitrate= 968.1kbits/s speed=0.0185x elapsed=0:01:57.30    \nframe=  133 fps=1.1 q=40.7 size=     256KiB time=00:00:02.18 bitrate= 960.7kbits/s speed=0.0185x elapsed=0:01:57.85    \nframe=  134 fps=1.1 q=41.8 size=     256KiB time=00:00:02.18 bitrate= 960.7kbits/s speed=0.0184x elapsed=0:01:58.38    \nframe=  135 fps=1.1 q=43.1 size=     256KiB time=00:00:02.21 bitrate= 946.2kbits/s speed=0.0186x elapsed=0:01:58.92    \nframe=  135 fps=1.1 q=43.1 size=     256KiB time=00:00:02.21 bitrate= 946.2kbits/s speed=0.0186x elapsed=0:01:59.46    \nframe=  135 fps=1.1 q=43.1 size=     256KiB time=00:00:02.21 bitrate= 946.2kbits/s speed=0.0185x elapsed=0:01:59.98    \nframe=  136 fps=1.1 q=43.1 size=     256KiB time=00:00:02.23 bitrate= 939.2kbits/s speed=0.0185x elapsed=0:02:00.50    \nframe=  137 fps=1.1 q=40.7 size=     256KiB time=00:00:02.25 bitrate= 932.2kbits/s speed=0.0186x elapsed=0:02:01.03    \nframe=  137 fps=1.1 q=40.7 size=     256KiB time=00:00:02.25 bitrate= 932.2kbits/s speed=0.0185x elapsed=0:02:01.56    \nframe=  137 fps=1.1 q=40.7 size=     256KiB time=00:00:02.25 bitrate= 932.2kbits/s speed=0.0184x elapsed=0:02:02.08    \nframe=  138 fps=1.1 q=41.9 size=     256KiB time=00:00:02.26 bitrate= 925.4kbits/s speed=0.0185x elapsed=0:02:02.63    \nframe=  138 fps=1.1 q=41.9 size=     256KiB time=00:00:02.26 bitrate= 925.4kbits/s speed=0.0184x elapsed=0:02:03.16    \nframe=  139 fps=1.1 q=43.2 size=     256KiB time=00:00:02.28 bitrate= 918.6kbits/s speed=0.0185x elapsed=0:02:03.68    \nframe=  139 fps=1.1 q=43.2 size=     256KiB time=00:00:02.28 bitrate= 918.6kbits/s speed=0.0184x elapsed=0:02:04.20    \nframe=  142 fps=1.1 q=41.9 size=     256KiB time=00:00:02.33 bitrate= 898.9kbits/s speed=0.0187x elapsed=0:02:04.74    \nframe=  142 fps=1.1 q=41.9 size=     256KiB time=00:00:02.33 bitrate= 898.9kbits/s speed=0.0186x elapsed=0:02:05.28    \nframe=  144 fps=1.1 q=43.2 size=     256KiB time=00:00:02.36 bitrate= 886.3kbits/s speed=0.0188x elapsed=0:02:05.80    \nframe=  145 fps=1.1 q=40.9 size=     256KiB time=00:00:02.38 bitrate= 880.1kbits/s speed=0.0189x elapsed=0:02:06.32    \nframe=  145 fps=1.1 q=40.9 size=     256KiB time=00:00:02.38 bitrate= 880.1kbits/s speed=0.0188x elapsed=0:02:06.84    \nframe=  146 fps=1.1 q=41.9 size=     256KiB time=00:00:02.40 bitrate= 874.0kbits/s speed=0.0188x elapsed=0:02:07.36    \nframe=  146 fps=1.1 q=41.9 size=     256KiB time=00:00:02.40 bitrate= 874.0kbits/s speed=0.0188x elapsed=0:02:07.88    \nframe=  147 fps=1.1 q=43.4 size=     256KiB time=00:00:02.41 bitrate= 867.9kbits/s speed=0.0188x elapsed=0:02:08.40    \nframe=  148 fps=1.1 q=43.3 size=     256KiB time=00:00:02.43 bitrate= 862.0kbits/s speed=0.0189x elapsed=0:02:08.92    \nframe=  149 fps=1.2 q=40.9 size=     256KiB time=00:00:02.45 bitrate= 856.1kbits/s speed=0.0189x elapsed=0:02:09.45    \nframe=  149 fps=1.1 q=40.9 size=     256KiB time=00:00:02.45 bitrate= 856.1kbits/s speed=0.0188x elapsed=0:02:09.98    \nframe=  149 fps=1.1 q=40.9 size=     256KiB time=00:00:02.45 bitrate= 856.1kbits/s speed=0.0188x elapsed=0:02:10.51    \nframe=  150 fps=1.1 q=42.1 size=     256KiB time=00:00:02.46 bitrate= 850.3kbits/s speed=0.0188x elapsed=0:02:11.05    \nframe=  152 fps=1.2 q=43.4 size=     256KiB time=00:00:02.50 bitrate= 839.0kbits/s speed=0.019x elapsed=0:02:11.59    \nframe=  152 fps=1.2 q=43.4 size=     256KiB time=00:00:02.50 bitrate= 839.0kbits/s speed=0.0189x elapsed=0:02:12.12    \nframe=  153 fps=1.2 q=40.8 size=     256KiB time=00:00:02.51 bitrate= 833.4kbits/s speed=0.019x elapsed=0:02:12.65    \nframe=  153 fps=1.1 q=40.8 size=     256KiB time=00:00:02.51 bitrate= 833.4kbits/s speed=0.0189x elapsed=0:02:13.17    \nframe=  153 fps=1.1 q=40.8 size=     256KiB time=00:00:02.51 bitrate= 833.4kbits/s speed=0.0188x elapsed=0:02:13.69    \nframe=  153 fps=1.1 q=40.8 size=     256KiB time=00:00:02.51 bitrate= 833.4kbits/s speed=0.0187x elapsed=0:02:14.23    \nframe=  154 fps=1.1 q=42.1 size=     256KiB time=00:00:02.53 bitrate= 828.0kbits/s speed=0.0188x elapsed=0:02:14.80    \nframe=  156 fps=1.2 q=43.5 size=     256KiB time=00:00:02.56 bitrate= 817.2kbits/s speed=0.019x elapsed=0:02:15.35    \nframe=  157 fps=1.2 q=41.0 size=     256KiB time=00:00:02.58 bitrate= 811.9kbits/s speed=0.019x elapsed=0:02:15.89    \nframe=  157 fps=1.2 q=41.0 size=     256KiB time=00:00:02.58 bitrate= 811.9kbits/s speed=0.0189x elapsed=0:02:16.44    \nframe=  158 fps=1.2 q=42.1 size=     256KiB time=00:00:02.60 bitrate= 806.7kbits/s speed=0.019x elapsed=0:02:17.02    \nframe=  158 fps=1.1 q=42.1 size=     256KiB time=00:00:02.60 bitrate= 806.7kbits/s speed=0.0189x elapsed=0:02:17.58    \nframe=  158 fps=1.1 q=42.1 size=     256KiB time=00:00:02.60 bitrate= 806.7kbits/s speed=0.0188x elapsed=0:02:18.12    \nframe=  158 fps=1.1 q=42.1 size=     256KiB time=00:00:02.60 bitrate= 806.7kbits/s speed=0.0188x elapsed=0:02:18.65    \nframe=  158 fps=1.1 q=42.1 size=     256KiB time=00:00:02.60 bitrate= 806.7kbits/s speed=0.0187x elapsed=0:02:19.24    \nframe=  160 fps=1.1 q=43.5 size=     256KiB time=00:00:02.63 bitrate= 796.5kbits/s speed=0.0188x elapsed=0:02:19.80    \nframe=  161 fps=1.1 q=41.1 size=     256KiB time=00:00:02.65 bitrate= 791.5kbits/s speed=0.0189x elapsed=0:02:20.34    \nframe=  161 fps=1.1 q=41.1 size=     256KiB time=00:00:02.65 bitrate= 791.5kbits/s speed=0.0188x elapsed=0:02:20.86    \nframe=  163 fps=1.2 q=43.6 size=     256KiB time=00:00:02.68 bitrate= 781.7kbits/s speed=0.019x elapsed=0:02:21.37    \nframe=  164 fps=1.2 q=43.5 size=     256KiB time=00:00:02.70 bitrate= 776.9kbits/s speed=0.019x elapsed=0:02:21.88    \nframe=  164 fps=1.2 q=43.5 size=     256KiB time=00:00:02.70 bitrate= 776.9kbits/s speed=0.019x elapsed=0:02:22.40    \nframe=  166 fps=1.2 q=42.3 size=     256KiB time=00:00:02.73 bitrate= 767.4kbits/s speed=0.0191x elapsed=0:02:22.92    \nframe=  166 fps=1.2 q=42.3 size=     256KiB time=00:00:02.73 bitrate= 767.4kbits/s speed=0.0191x elapsed=0:02:23.43    \nframe=  168 fps=1.2 q=43.6 size=     512KiB time=00:00:02.76 bitrate=1516.1kbits/s speed=0.0192x elapsed=0:02:23.95    \nframe=  169 fps=1.2 q=40.9 size=     512KiB time=00:00:02.78 bitrate=1507.1kbits/s speed=0.0193x elapsed=0:02:24.47    \nframe=  170 fps=1.2 q=42.2 size=     512KiB time=00:00:02.80 bitrate=1498.1kbits/s speed=0.0193x elapsed=0:02:24.99    \nframe=  172 fps=1.2 q=43.5 size=     512KiB time=00:00:02.83 bitrate=1480.5kbits/s speed=0.0195x elapsed=0:02:25.51    \nframe=  172 fps=1.2 q=43.5 size=     512KiB time=00:00:02.83 bitrate=1480.5kbits/s speed=0.0194x elapsed=0:02:26.02    \nframe=  173 fps=1.2 q=40.9 size=     512KiB time=00:00:02.85 bitrate=1471.8kbits/s speed=0.0194x elapsed=0:02:26.54    \nframe=  173 fps=1.2 q=40.9 size=     512KiB time=00:00:02.85 bitrate=1471.8kbits/s speed=0.0194x elapsed=0:02:27.06    \nframe=  174 fps=1.2 q=42.2 size=     512KiB time=00:00:02.86 bitrate=1463.3kbits/s speed=0.0194x elapsed=0:02:27.57    \nframe=  176 fps=1.2 q=43.5 size=     512KiB time=00:00:02.90 bitrate=1446.4kbits/s speed=0.0196x elapsed=0:02:28.10    \nframe=  176 fps=1.2 q=43.5 size=     512KiB time=00:00:02.90 bitrate=1446.4kbits/s speed=0.0195x elapsed=0:02:28.63    \nframe=  178 fps=1.2 q=42.1 size=     512KiB time=00:00:02.93 bitrate=1430.0kbits/s speed=0.0197x elapsed=0:02:29.15    \nframe=  179 fps=1.2 q=43.5 size=     512KiB time=00:00:02.95 bitrate=1421.9kbits/s speed=0.0197x elapsed=0:02:29.68    \nframe=  180 fps=1.2 q=43.3 size=     512KiB time=00:00:02.96 bitrate=1413.9kbits/s speed=0.0198x elapsed=0:02:30.20    \nframe=  180 fps=1.2 q=43.3 size=     512KiB time=00:00:02.96 bitrate=1413.9kbits/s speed=0.0197x elapsed=0:02:30.71    \nframe=  182 fps=1.2 q=42.0 size=     512KiB time=00:00:03.00 bitrate=1398.2kbits/s speed=0.0198x elapsed=0:02:31.23    \nframe=  183 fps=1.2 q=43.4 size=     512KiB time=00:00:03.01 bitrate=1390.5kbits/s speed=0.0199x elapsed=0:02:31.75    \nframe=  183 fps=1.2 q=43.4 size=     512KiB time=00:00:03.01 bitrate=1390.5kbits/s speed=0.0198x elapsed=0:02:32.26    \nframe=  185 fps=1.2 q=42.0 size=     512KiB time=00:00:03.05 bitrate=1375.3kbits/s speed=0.02x elapsed=0:02:32.78    \nframe=  187 fps=1.2 q=43.3 size=     512KiB time=00:00:03.08 bitrate=1360.4kbits/s speed=0.0201x elapsed=0:02:33.29    \nframe=  187 fps=1.2 q=43.3 size=     512KiB time=00:00:03.08 bitrate=1360.4kbits/s speed=0.02x elapsed=0:02:33.81    \nframe=  188 fps=1.2 q=40.2 size=     512KiB time=00:00:03.10 bitrate=1353.1kbits/s speed=0.0201x elapsed=0:02:34.33    \nframe=  190 fps=1.2 q=43.3 size=     512KiB time=00:00:03.13 bitrate=1338.7kbits/s speed=0.0202x elapsed=0:02:34.85    \nframe=  191 fps=1.2 q=43.2 size=     512KiB time=00:00:03.15 bitrate=1331.6kbits/s speed=0.0203x elapsed=0:02:35.37    \nframe=  192 fps=1.2 q=40.3 size=     512KiB time=00:00:03.16 bitrate=1324.6kbits/s speed=0.0203x elapsed=0:02:35.89    \nframe=  193 fps=1.2 q=41.5 size=     512KiB time=00:00:03.18 bitrate=1317.7kbits/s speed=0.0203x elapsed=0:02:36.43    \nframe=  193 fps=1.2 q=41.5 size=     512KiB time=00:00:03.18 bitrate=1317.7kbits/s speed=0.0203x elapsed=0:02:36.95    \nframe=  193 fps=1.2 q=41.5 size=     512KiB time=00:00:03.18 bitrate=1317.7kbits/s speed=0.0202x elapsed=0:02:37.46    \nframe=  195 fps=1.2 q=43.2 size=     512KiB time=00:00:03.21 bitrate=1304.0kbits/s speed=0.0204x elapsed=0:02:37.98    \nframe=  196 fps=1.2 q=43.2 size=     512KiB time=00:00:03.23 bitrate=1297.3kbits/s speed=0.0204x elapsed=0:02:38.50    \nframe=  197 fps=1.2 q=40.1 size=     512KiB time=00:00:03.25 bitrate=1290.7kbits/s speed=0.0204x elapsed=0:02:39.03    \nframe=  198 fps=1.2 q=41.7 size=     512KiB time=00:00:03.26 bitrate=1284.1kbits/s speed=0.0205x elapsed=0:02:39.54    \nframe=  200 fps=1.2 q=43.2 size=     512KiB time=00:00:03.30 bitrate=1271.1kbits/s speed=0.0206x elapsed=0:02:40.06    \nframe=  200 fps=1.2 q=43.2 size=     512KiB time=00:00:03.30 bitrate=1271.1kbits/s speed=0.0206x elapsed=0:02:40.57    \nframe=  200 fps=1.2 q=43.2 size=     512KiB time=00:00:03.30 bitrate=1271.1kbits/s speed=0.0205x elapsed=0:02:41.09    \nframe=  201 fps=1.2 q=39.7 size=     512KiB time=00:00:03.31 bitrate=1264.7kbits/s speed=0.0205x elapsed=0:02:41.61    \nframe=  203 fps=1.3 q=43.1 size=     512KiB time=00:00:03.35 bitrate=1252.1kbits/s speed=0.0207x elapsed=0:02:42.12    \nframe=  204 fps=1.3 q=43.0 size=     512KiB time=00:00:03.36 bitrate=1245.9kbits/s speed=0.0207x elapsed=0:02:42.65    \nframe=  206 fps=1.3 q=41.5 size=     512KiB time=00:00:03.40 bitrate=1233.7kbits/s speed=0.0208x elapsed=0:02:43.19    \nframe=  206 fps=1.3 q=41.5 size=     512KiB time=00:00:03.40 bitrate=1233.7kbits/s speed=0.0208x elapsed=0:02:43.71    \nframe=  206 fps=1.3 q=41.5 size=     512KiB time=00:00:03.40 bitrate=1233.7kbits/s speed=0.0207x elapsed=0:02:44.26    \nframe=  207 fps=1.3 q=43.2 size=     512KiB time=00:00:03.41 bitrate=1227.7kbits/s speed=0.0207x elapsed=0:02:44.79    \nframe=  209 fps=1.3 q=40.0 size=     512KiB time=00:00:03.45 bitrate=1215.8kbits/s speed=0.0209x elapsed=0:02:45.34    \nframe=  210 fps=1.3 q=41.5 size=     512KiB time=00:00:03.46 bitrate=1210.0kbits/s speed=0.0209x elapsed=0:02:45.86    \nframe=  210 fps=1.3 q=41.5 size=     512KiB time=00:00:03.46 bitrate=1210.0kbits/s speed=0.0208x elapsed=0:02:46.39    \nframe=  211 fps=1.3 q=43.1 size=     512KiB time=00:00:03.48 bitrate=1204.2kbits/s speed=0.0209x elapsed=0:02:46.92    \nframe=  212 fps=1.3 q=42.9 size=     512KiB time=00:00:03.50 bitrate=1198.5kbits/s speed=0.0209x elapsed=0:02:47.44    \nframe=  214 fps=1.3 q=41.5 size=     512KiB time=00:00:03.53 bitrate=1187.2kbits/s speed=0.021x elapsed=0:02:47.94    \nframe=  214 fps=1.3 q=41.5 size=     512KiB time=00:00:03.53 bitrate=1187.2kbits/s speed=0.021x elapsed=0:02:48.49    \nframe=  215 fps=1.3 q=42.9 size=     512KiB time=00:00:03.55 bitrate=1181.6kbits/s speed=0.021x elapsed=0:02:49.02    \nframe=  217 fps=1.3 q=39.5 size=     512KiB time=00:00:03.58 bitrate=1170.6kbits/s speed=0.0211x elapsed=0:02:49.56    \nframe=  218 fps=1.3 q=41.3 size=     512KiB time=00:00:03.60 bitrate=1165.2kbits/s speed=0.0212x elapsed=0:02:50.07    \nframe=  219 fps=1.3 q=43.0 size=     512KiB time=00:00:03.61 bitrate=1159.8kbits/s speed=0.0212x elapsed=0:02:50.60    \nframe=  219 fps=1.3 q=43.0 size=     512KiB time=00:00:03.61 bitrate=1159.8kbits/s speed=0.0211x elapsed=0:02:51.13    \nframe=  220 fps=1.3 q=42.8 size=     512KiB time=00:00:03.63 bitrate=1154.5kbits/s speed=0.0212x elapsed=0:02:51.63    \nframe=  220 fps=1.3 q=42.8 size=     512KiB time=00:00:03.63 bitrate=1154.5kbits/s speed=0.0211x elapsed=0:02:52.18    \nframe=  220 fps=1.3 q=42.8 size=     512KiB time=00:00:03.63 bitrate=1154.5kbits/s speed=0.021x elapsed=0:02:52.73    \nframe=  221 fps=1.3 q=38.9 size=     512KiB time=00:00:03.63 bitrate=1154.5kbits/s speed=0.021x elapsed=0:02:53.29    \nframe=  221 fps=1.3 q=38.9 size=     512KiB time=00:00:03.65 bitrate=1149.2kbits/s speed=0.021x elapsed=0:02:53.91    \nframe=  222 fps=1.3 q=41.1 size=     512KiB time=00:00:03.66 bitrate=1144.0kbits/s speed=0.021x elapsed=0:02:54.48    \nframe=  222 fps=1.3 q=41.1 size=     512KiB time=00:00:03.66 bitrate=1144.0kbits/s speed=0.0209x elapsed=0:02:55.08    \nframe=  222 fps=1.3 q=41.1 size=     512KiB time=00:00:03.66 bitrate=1144.0kbits/s speed=0.0209x elapsed=0:02:55.63    \nframe=  222 fps=1.3 q=41.1 size=     512KiB time=00:00:03.66 bitrate=1144.0kbits/s speed=0.0208x elapsed=0:02:56.17    \nframe=  224 fps=1.3 q=42.8 size=     512KiB time=00:00:03.68 bitrate=1138.8kbits/s speed=0.0208x elapsed=0:02:56.70    \nframe=  224 fps=1.3 q=42.8 size=     512KiB time=00:00:03.70 bitrate=1133.7kbits/s speed=0.0209x elapsed=0:02:57.26    \nframe=  224 fps=1.3 q=42.8 size=     512KiB time=00:00:03.70 bitrate=1133.7kbits/s speed=0.0208x elapsed=0:02:57.78    \nframe=  226 fps=1.3 q=41.4 size=     512KiB time=00:00:03.73 bitrate=1123.6kbits/s speed=0.0209x elapsed=0:02:58.29    \nframe=  227 fps=1.3 q=42.8 size=     512KiB time=00:00:03.75 bitrate=1118.6kbits/s speed=0.021x elapsed=0:02:58.82    \nframe=  229 fps=1.3 q=38.6 size=     512KiB time=00:00:03.78 bitrate=1108.7kbits/s speed=0.0211x elapsed=0:02:59.34    \nframe=  230 fps=1.3 q=41.0 size=     512KiB time=00:00:03.80 bitrate=1103.9kbits/s speed=0.0211x elapsed=0:02:59.85    \nframe=  230 fps=1.3 q=41.0 size=     512KiB time=00:00:03.80 bitrate=1103.9kbits/s speed=0.0211x elapsed=0:03:00.41    \nframe=  230 fps=1.3 q=41.0 size=     512KiB time=00:00:03.80 bitrate=1103.9kbits/s speed=0.021x elapsed=0:03:00.96    \nframe=  233 fps=1.3 q=38.9 size=     512KiB time=00:00:03.85 bitrate=1089.5kbits/s speed=0.0212x elapsed=0:03:01.47    \nframe=  233 fps=1.3 q=38.9 size=     512KiB time=00:00:03.85 bitrate=1089.5kbits/s speed=0.0212x elapsed=0:03:01.98    \nframe=  233 fps=1.3 q=38.9 size=     512KiB time=00:00:03.85 bitrate=1089.5kbits/s speed=0.0211x elapsed=0:03:02.50    \nframe=  233 fps=1.3 q=38.9 size=     512KiB time=00:00:03.85 bitrate=1089.5kbits/s speed=0.021x elapsed=0:03:03.03    \nframe=  235 fps=1.3 q=42.6 size=     512KiB time=00:00:03.88 bitrate=1080.2kbits/s speed=0.0212x elapsed=0:03:03.55    \nframe=  235 fps=1.3 q=42.6 size=     512KiB time=00:00:03.88 bitrate=1080.2kbits/s speed=0.0211x elapsed=0:03:04.05    \nframe=  237 fps=1.3 q=38.8 size=     512KiB time=00:00:03.91 bitrate=1071.0kbits/s speed=0.0212x elapsed=0:03:04.57    \nframe=  237 fps=1.3 q=38.8 size=     512KiB time=00:00:03.91 bitrate=1071.0kbits/s speed=0.0212x elapsed=0:03:05.10    \nframe=  238 fps=1.3 q=40.9 size=     512KiB time=00:00:03.93 bitrate=1066.4kbits/s speed=0.0212x elapsed=0:03:05.61    \nframe=  238 fps=1.3 q=40.9 size=     512KiB time=00:00:03.93 bitrate=1066.4kbits/s speed=0.0211x elapsed=0:03:06.13    \nframe=  240 fps=1.3 q=42.8 size=     512KiB time=00:00:03.96 bitrate=1057.5kbits/s speed=0.0213x elapsed=0:03:06.65    \nframe=  241 fps=1.3 q=38.7 size=     512KiB time=00:00:03.98 bitrate=1053.1kbits/s speed=0.0213x elapsed=0:03:07.20    \nframe=  241 fps=1.3 q=38.7 size=     512KiB time=00:00:03.98 bitrate=1053.1kbits/s speed=0.0212x elapsed=0:03:07.73    \nframe=  242 fps=1.3 q=40.8 size=     512KiB time=00:00:04.00 bitrate=1048.7kbits/s speed=0.0212x elapsed=0:03:08.25    \nframe=  243 fps=1.3 q=42.7 size=     512KiB time=00:00:04.01 bitrate=1044.3kbits/s speed=0.0213x elapsed=0:03:08.79    \nframe=  244 fps=1.3 q=42.7 size=     512KiB time=00:00:04.03 bitrate=1040.0kbits/s speed=0.0213x elapsed=0:03:09.33    \nframe=  244 fps=1.3 q=42.7 size=     512KiB time=00:00:04.03 bitrate=1040.0kbits/s speed=0.0212x elapsed=0:03:09.87    \nframe=  245 fps=1.3 q=38.9 size=     512KiB time=00:00:04.05 bitrate=1035.7kbits/s speed=0.0213x elapsed=0:03:10.39    \nframe=  246 fps=1.3 q=40.6 size=     512KiB time=00:00:04.06 bitrate=1031.5kbits/s speed=0.0213x elapsed=0:03:10.91    \nframe=  246 fps=1.3 q=40.6 size=     512KiB time=00:00:04.06 bitrate=1031.5kbits/s speed=0.0212x elapsed=0:03:11.47    \nframe=  247 fps=1.3 q=42.8 size=     512KiB time=00:00:04.08 bitrate=1027.3kbits/s speed=0.0213x elapsed=0:03:11.99    \nframe=  248 fps=1.3 q=42.6 size=     512KiB time=00:00:04.10 bitrate=1023.1kbits/s speed=0.0213x elapsed=0:03:12.51    \nframe=  248 fps=1.3 q=42.6 size=     512KiB time=00:00:04.10 bitrate=1023.1kbits/s speed=0.0212x elapsed=0:03:13.03    \nframe=  249 fps=1.3 q=36.2 size=     512KiB time=00:00:04.11 bitrate=1018.9kbits/s speed=0.0213x elapsed=0:03:13.56    \nframe=  251 fps=1.3 q=42.3 size=     768KiB time=00:00:04.15 bitrate=1516.1kbits/s speed=0.0214x elapsed=0:03:14.08    \nframe=  251 fps=1.3 q=42.3 size=     768KiB time=00:00:04.15 bitrate=1516.1kbits/s speed=0.0213x elapsed=0:03:14.59    \nframe=  252 fps=1.3 q=39.5 size=     768KiB time=00:00:04.16 bitrate=1510.0kbits/s speed=0.0214x elapsed=0:03:15.14    \nframe=  253 fps=1.3 q=40.4 size=     768KiB time=00:00:04.18 bitrate=1504.0kbits/s speed=0.0214x elapsed=0:03:15.66    \nframe=  255 fps=1.3 q=42.6 size=     768KiB time=00:00:04.21 bitrate=1492.1kbits/s speed=0.0215x elapsed=0:03:16.19    \nframe=  255 fps=1.3 q=42.6 size=     768KiB time=00:00:04.21 bitrate=1492.1kbits/s speed=0.0214x elapsed=0:03:16.73    \nframe=  255 fps=1.3 q=42.6 size=     768KiB time=00:00:04.21 bitrate=1492.1kbits/s speed=0.0214x elapsed=0:03:17.27    \nframe=  255 fps=1.3 q=42.6 size=     768KiB time=00:00:04.21 bitrate=1492.1kbits/s speed=0.0213x elapsed=0:03:17.79    \nframe=  257 fps=1.3 q=40.8 size=     768KiB time=00:00:04.25 bitrate=1480.4kbits/s speed=0.0214x elapsed=0:03:18.32    \nframe=  257 fps=1.3 q=40.8 size=     768KiB time=00:00:04.25 bitrate=1480.4kbits/s speed=0.0214x elapsed=0:03:18.84    \nframe=  257 fps=1.3 q=40.8 size=     768KiB time=00:00:04.25 bitrate=1480.4kbits/s speed=0.0213x elapsed=0:03:19.36    \nframe=  258 fps=1.3 q=42.5 size=     768KiB time=00:00:04.26 bitrate=1474.6kbits/s speed=0.0213x elapsed=0:03:19.88    \nframe=  260 fps=1.3 q=39.4 size=     768KiB time=00:00:04.30 bitrate=1463.2kbits/s speed=0.0215x elapsed=0:03:20.39    \nframe=  260 fps=1.3 q=39.4 size=     768KiB time=00:00:04.30 bitrate=1463.2kbits/s speed=0.0214x elapsed=0:03:20.92    \nframe=  260 fps=1.3 q=39.4 size=     768KiB time=00:00:04.30 bitrate=1463.2kbits/s speed=0.0213x elapsed=0:03:21.44    \nframe=  260 fps=1.3 q=39.4 size=     768KiB time=00:00:04.30 bitrate=1463.2kbits/s speed=0.0213x elapsed=0:03:21.97    \nframe=  261 fps=1.3 q=41.0 size=     768KiB time=00:00:04.31 bitrate=1457.6kbits/s speed=0.0213x elapsed=0:03:22.50    \nframe=  263 fps=1.3 q=42.5 size=     768KiB time=00:00:04.35 bitrate=1446.4kbits/s speed=0.0214x elapsed=0:03:23.00    \nframe=  263 fps=1.3 q=42.5 size=     768KiB time=00:00:04.35 bitrate=1446.4kbits/s speed=0.0214x elapsed=0:03:23.53    \nframe=  264 fps=1.3 q=39.4 size=     768KiB time=00:00:04.36 bitrate=1440.9kbits/s speed=0.0214x elapsed=0:03:24.08    \nframe=  264 fps=1.3 q=39.4 size=     768KiB time=00:00:04.36 bitrate=1440.9kbits/s speed=0.0213x elapsed=0:03:24.62    \nframe=  265 fps=1.3 q=41.1 size=     768KiB time=00:00:04.38 bitrate=1435.4kbits/s speed=0.0214x elapsed=0:03:25.18    \nframe=  266 fps=1.3 q=42.6 size=     768KiB time=00:00:04.40 bitrate=1430.0kbits/s speed=0.0214x elapsed=0:03:25.73    \nframe=  267 fps=1.3 q=42.7 size=     768KiB time=00:00:04.41 bitrate=1424.6kbits/s speed=0.0214x elapsed=0:03:26.24    \nframe=  267 fps=1.3 q=42.7 size=     768KiB time=00:00:04.41 bitrate=1424.6kbits/s speed=0.0214x elapsed=0:03:26.76    \nframe=  268 fps=1.3 q=39.2 size=     768KiB time=00:00:04.43 bitrate=1419.2kbits/s speed=0.0214x elapsed=0:03:27.27    \nframe=  268 fps=1.3 q=39.2 size=     768KiB time=00:00:04.43 bitrate=1419.2kbits/s speed=0.0213x elapsed=0:03:27.81    \nframe=  269 fps=1.3 q=41.3 size=     768KiB time=00:00:04.45 bitrate=1413.9kbits/s speed=0.0214x elapsed=0:03:28.33    \nframe=  270 fps=1.3 q=42.7 size=     768KiB time=00:00:04.46 bitrate=1408.6kbits/s speed=0.0214x elapsed=0:03:28.86    \nframe=  271 fps=1.3 q=42.7 size=     768KiB time=00:00:04.48 bitrate=1403.4kbits/s speed=0.0214x elapsed=0:03:29.39    \nframe=  272 fps=1.3 q=39.4 size=     768KiB time=00:00:04.50 bitrate=1398.2kbits/s speed=0.0214x elapsed=0:03:29.95    \nframe=  273 fps=1.3 q=41.1 size=     768KiB time=00:00:04.51 bitrate=1393.0kbits/s speed=0.0215x elapsed=0:03:30.46    \nframe=  273 fps=1.3 q=41.1 size=     768KiB time=00:00:04.51 bitrate=1393.0kbits/s speed=0.0214x elapsed=0:03:30.98    \nframe=  273 fps=1.3 q=41.1 size=     768KiB time=00:00:04.51 bitrate=1393.0kbits/s speed=0.0214x elapsed=0:03:31.49    \nframe=  275 fps=1.3 q=42.7 size=     768KiB time=00:00:04.55 bitrate=1382.8kbits/s speed=0.0215x elapsed=0:03:32.03    \nframe=  275 fps=1.3 q=42.7 size=     768KiB time=00:00:04.55 bitrate=1382.8kbits/s speed=0.0214x elapsed=0:03:32.55    \nframe=  276 fps=1.3 q=39.5 size=     768KiB time=00:00:04.56 bitrate=1377.8kbits/s speed=0.0214x elapsed=0:03:33.13    \nframe=  278 fps=1.3 q=42.8 size=     768KiB time=00:00:04.60 bitrate=1367.8kbits/s speed=0.0215x elapsed=0:03:33.67    \nframe=  278 fps=1.3 q=42.8 size=     768KiB time=00:00:04.60 bitrate=1367.8kbits/s speed=0.0215x elapsed=0:03:34.20    \nframe=  279 fps=1.3 q=42.9 size=     768KiB time=00:00:04.61 bitrate=1362.8kbits/s speed=0.0215x elapsed=0:03:34.72    \nframe=  280 fps=1.3 q=39.9 size=     768KiB time=00:00:04.63 bitrate=1357.9kbits/s speed=0.0215x elapsed=0:03:35.24    \nframe=  281 fps=1.3 q=41.1 size=     768KiB time=00:00:04.65 bitrate=1353.1kbits/s speed=0.0216x elapsed=0:03:35.76    \nframe=  281 fps=1.3 q=41.1 size=     768KiB time=00:00:04.65 bitrate=1353.1kbits/s speed=0.0215x elapsed=0:03:36.29    \nframe=  281 fps=1.3 q=41.1 size=     768KiB time=00:00:04.65 bitrate=1353.1kbits/s speed=0.0214x elapsed=0:03:36.81    \nframe=  283 fps=1.3 q=42.9 size=     768KiB time=00:00:04.68 bitrate=1343.4kbits/s speed=0.0215x elapsed=0:03:37.32    \nframe=  285 fps=1.3 q=41.5 size=     768KiB time=00:00:04.71 bitrate=1334.0kbits/s speed=0.0217x elapsed=0:03:37.85    \nframe=  285 fps=1.3 q=41.5 size=     768KiB time=00:00:04.71 bitrate=1334.0kbits/s speed=0.0216x elapsed=0:03:38.37    \nframe=  285 fps=1.3 q=41.5 size=     768KiB time=00:00:04.71 bitrate=1334.0kbits/s speed=0.0215x elapsed=0:03:38.90    \nframe=  287 fps=1.3 q=43.0 size=     768KiB time=00:00:04.75 bitrate=1324.6kbits/s speed=0.0216x elapsed=0:03:39.41    \nframe=  287 fps=1.3 q=43.0 size=     768KiB time=00:00:04.75 bitrate=1324.6kbits/s speed=0.0216x elapsed=0:03:39.94    \nframe=  288 fps=1.3 q=40.3 size=     768KiB time=00:00:04.76 bitrate=1320.0kbits/s speed=0.0216x elapsed=0:03:40.46    \nframe=  288 fps=1.3 q=40.3 size=     768KiB time=00:00:04.76 bitrate=1320.0kbits/s speed=0.0216x elapsed=0:03:41.00    \nframe=  288 fps=1.3 q=40.3 size=     768KiB time=00:00:04.76 bitrate=1320.0kbits/s speed=0.0215x elapsed=0:03:41.57    \nframe=  289 fps=1.3 q=41.9 size=     768KiB time=00:00:04.78 bitrate=1315.4kbits/s speed=0.0215x elapsed=0:03:42.15    \nframe=  289 fps=1.3 q=41.9 size=     768KiB time=00:00:04.78 bitrate=1315.4kbits/s speed=0.0215x elapsed=0:03:42.68    \nframe=  291 fps=1.3 q=42.8 size=     768KiB time=00:00:04.81 bitrate=1306.3kbits/s speed=0.0216x elapsed=0:03:43.21    \nframe=  291 fps=1.3 q=42.8 size=     768KiB time=00:00:04.81 bitrate=1306.3kbits/s speed=0.0215x elapsed=0:03:43.73    \nframe=  292 fps=1.3 q=42.9 size=     768KiB time=00:00:04.83 bitrate=1301.8kbits/s speed=0.0216x elapsed=0:03:44.25    \nframe=  293 fps=1.3 q=40.3 size=     768KiB time=00:00:04.85 bitrate=1297.3kbits/s speed=0.0216x elapsed=0:03:44.76    \nframe=  293 fps=1.3 q=40.3 size=     768KiB time=00:00:04.85 bitrate=1297.3kbits/s speed=0.0215x elapsed=0:03:45.28    \nframe=  293 fps=1.3 q=40.3 size=     768KiB time=00:00:04.85 bitrate=1297.3kbits/s speed=0.0215x elapsed=0:03:45.81    \nframe=  295 fps=1.3 q=43.1 size=     768KiB time=00:00:04.88 bitrate=1288.4kbits/s speed=0.0216x elapsed=0:03:46.33    \nframe=  296 fps=1.3 q=43.1 size=     768KiB time=00:00:04.90 bitrate=1284.0kbits/s speed=0.0216x elapsed=0:03:46.84    \nframe=  296 fps=1.3 q=43.1 size=     768KiB time=00:00:04.90 bitrate=1284.0kbits/s speed=0.0216x elapsed=0:03:47.36    \nframe=  298 fps=1.3 q=41.8 size=     768KiB time=00:00:04.93 bitrate=1275.4kbits/s speed=0.0216x elapsed=0:03:47.88    \n[mp4 @ 0000020b16027a00] Starting second pass: moving the moov atom to the beginning of the file\n[out#0/mp4 @ 0000020b16027900] video:917KiB audio:0KiB subtitle:0KiB other streams:0KiB global headers:2KiB muxing overhead: 0.769655%\nframe=  300 fps=1.3 q=43.2 Lsize=     924KiB time=00:00:04.96 bitrate=1523.9kbits/s speed=0.0217x elapsed=0:03:48.39    \nx265 [info]: frame I:      2, Avg QP:40.19  kb/s: 2563.92 \nx265 [info]: frame P:     74, Avg QP:40.02  kb/s: 2403.24 \nx265 [info]: frame B:    224, Avg QP:42.55  kb/s: 1192.46 \nx265 [info]: Weighted P-Frames: Y:2.7% UV:2.7%\n\nencoded 300 frames in 228.06s (1.32 fps), 1500.26 kb/s, Avg QP:41.91\n",
  "seconds": 228.72745490074158,
  "probe_out": {}
}